<?xml version="1.0" encoding="UTF-8" standalone="no"?><svg xmlns:svg="http://www.w3.org/2000/svg" xmlns:xlink="http://www.w3.org/1999/xlink" xmlns="http://www.w3.org/2000/svg" width="1200" height="630" viewBox="0 0 1200 630"><rect x="0" y="0" width="1200" height="630" fill="url(#gradient)" /><defs><linearGradient id="gradient" x1="90%" y1="0%" x2="10%" y2="100%"><stop offset="0%" stop-color="hsl(80,80%,74%)" /><stop offset="50%" stop-color="hsl(80,80%,50%)" /><stop offset="100%" stop-color="hsl(80,80%,26%)" /></linearGradient><radialGradient id="pistilColor"><stop offset="0%" stop-color="hsl(80,80%,85%)" stop-opacity="1" /><stop offset="100%" stop-color="hsl(80,80%,100%)" stop-opacity="1" /></radialGradient><radialGradient id="petalColor" cx="0%" cy="50%" r="100%"><stop offset="25%" stop-color="hsl(80,80%,85%)" stop-opacity="1" /><stop offset="100%" stop-color="hsl(80,80%,100%)" stop-opacity="1" /></radialGradient><radialGradient id="sepalColor" cx="0%" cy="50%" r="100%"><stop offset="0%" stop-color="hsl(80,80%,95%)" stop-opacity="0.3" /><stop offset="100%" stop-color="hsl(80,80%,100%)" stop-opacity="0.3" /></radialGradient><circle r="96" transform="translate(512,512)" fill="url(#pistilColor)" stroke="none" id="pistil" /><path d="M 0,0 C 300,52.898094212539492 354,36 374,18 Q 394,0 374,-18 C 354,-36 300,-52.898094212539492 0,0 Z" transform="translate(512,512)" fill="url(#petalColor)" stroke="none" id="petal" /><polygon points="0,0 240,36 304,0 240,-36" transform="translate(512,512)" fill="url(#sepalColor)" stroke="none" id="sepal" /></defs><g transform="matrix(0.615234375 0 0 0.615234375 285 0)"><use xlink:href="#sepal" transform="rotate(10,512,512)" /><use xlink:href="#sepal" transform="rotate(30,512,512)" /><use xlink:href="#sepal" transform="rotate(50,512,512)" /><use xlink:href="#sepal" transform="rotate(70,512,512)" /><use xlink:href="#sepal" transform="rotate(90,512,512)" /><use xlink:href="#sepal" transform="rotate(110,512,512)" /><use xlink:href="#sepal" transform="rotate(130,512,512)" /><use xlink:href="#sepal" transform="rotate(150,512,512)" /><use xlink:href="#sepal" transform="rotate(170,512,512)" /><use xlink:href="#sepal" transform="rotate(190,512,512)" /><use xlink:href="#sepal" transform="rotate(210,512,512)" /><use xlink:href="#sepal" transform="rotate(230,512,512)" /><use xlink:href="#sepal" transform="rotate(250,512,512)" /><use xlink:href="#sepal" transform="rotate(270,512,512)" /><use xlink:href="#sepal" transform="rotate(290,512,512)" /><use xlink:href="#sepal" transform="rotate(310,512,512)" /><use xlink:href="#sepal" transform="rotate(330,512,512)" /><use xlink:href="#sepal" transform="rotate(350,512,512)" /><use xlink:href="#petal" transform="rotate(0,512,512)" /><use xlink:href="#petal" transform="rotate(20,512,512)" /><use xlink:href="#petal" transform="rotate(40,512,512)" /><use xlink:href="#petal" transform="rotate(60,512,512)" /><use xlink:href="#petal" transform="rotate(80,512,512)" /><use xlink:href="#petal" transform="rotate(100,512,512)" /><use xlink:href="#petal" transform="rotate(120,512,512)" /><use xlink:href="#petal" transform="rotate(140,512,512)" /><use xlink:href="#petal" transform="rotate(160,512,512)" /><use xlink:href="#petal" transform="rotate(180,512,512)" /><use xlink:href="#petal" transform="rotate(200,512,512)" /><use xlink:href="#petal" transform="rotate(220,512,512)" /><use xlink:href="#petal" transform="rotate(240,512,512)" /><use xlink:href="#petal" transform="rotate(260,512,512)" /><use xlink:href="#petal" transform="rotate(280,512,512)" /><use xlink:href="#petal" transform="rotate(300,512,512)" /><use xlink:href="#petal" transform="rotate(320,512,512)" /><use xlink:href="#petal" transform="rotate(340,512,512)" /><use xlink:href="#pistil" /></g></svg>